Coordinates
version=1
nRows=7
nColumns=40
inDegrees=yes

Units are S.I. units (second, meters, Newtons, ...)
Angles are in degrees.

endheader
time	pelvis_tilt	pelvis_list	pelvis_rotation	pelvis_tx	pelvis_ty	pelvis_tz	hip_flexion_r	hip_adduction_r	hip_rotation_r	knee_angle_r	knee_angle_r_beta	ankle_angle_r	subtalar_angle_r	mtp_angle_r	hip_flexion_l	hip_adduction_l	hip_rotation_l	knee_angle_l	knee_angle_l_beta	ankle_angle_l	subtalar_angle_l	mtp_angle_l	lumbar_extension	lumbar_bending	lumbar_rotation	arm_flex_r	arm_add_r	arm_rot_r	elbow_flex_r	pro_sup_r	wrist_flex_r	wrist_dev_r	arm_flex_l	arm_add_l	arm_rot_l	elbow_flex_l	pro_sup_l	wrist_flex_l	wrist_dev_l
     15.18000000	     -3.75381506	     -3.09562542	     -0.05917073	      0.88016610	      0.93175227	      0.41321052	     26.36762775	     -6.17678480	     -5.77135998	     67.13174040	     67.13174040	      1.09685232	    -18.09665962	      6.63522401	     14.63348683	     -2.98453917	     -8.31669435	     21.33863532	     21.33863532	     12.20763149	    -13.37319073	      1.21934220	     -8.50100463	      6.24981133	      2.99079207	      8.65826880	    -12.11255761	     -9.87611301	     31.59156123	     45.83563913	      0.00000000	      0.00000000	     10.50648104	    -12.27379525	     -1.26788705	     51.52995128	     46.32900089	      0.00000000	      0.00000000
     15.19235714	     -3.74193500	     -3.05421467	     -0.42678352	      0.87939819	      0.93253122	      0.41298510	     27.58951074	     -5.97512521	     -5.71588416	     65.97533973	     65.97533973	      1.28077860	    -17.97162876	      6.39470528	     13.65274762	     -2.91990966	     -8.70898025	     20.56290730	     20.56290730	     12.39413644	    -13.07756720	      1.17926167	     -8.67951282	      6.25031008	      3.27431567	      6.67970236	    -11.97187404	     -9.64059464	     30.18890852	     45.86912776	      0.00000000	      0.00000000	     11.90721545	    -12.48013992	     -1.63864207	     52.72915150	     46.39243921	      0.00000000	      0.00000000
     15.20471429	     -3.76968789	     -3.09023949	     -0.70924176	      0.87868255	      0.93314315	      0.41278784	     28.68446241	     -5.73026162	     -5.86006834	     64.58963989	     64.58963989	      1.43812822	    -17.82741593	      6.23072780	     12.77745126	     -2.93113743	     -9.03268223	     19.87917791	     19.87917791	     12.61160170	    -12.76568931	      1.09471360	     -8.74447537	      6.33032401	      3.15968072	      4.82593535	    -11.66578966	     -9.43276108	     29.06040614	     45.89076653	      0.00000000	      0.00000000	     13.12513911	    -12.92760172	     -2.00528328	     53.75858132	     46.44938781	      0.00000000	      0.00000000
     15.21707143	     -3.70724818	     -3.09162913	     -1.05332758	      0.87800140	      0.93385559	      0.41265443	     29.55922626	     -5.45315655	     -5.89033201	     62.94398648	     62.94398648	      1.49285530	    -17.66309321	      5.98976287	     11.71870594	     -2.90128354	     -9.49040577	     19.04063080	     19.04063080	     12.77093340	    -12.34389154	      0.94338920	     -8.97678832	      6.35628059	      3.47140959	      2.96588311	    -11.54518184	     -9.12150010	     27.64035705	     45.91975546	      0.00000000	      0.00000000	     14.40221482	    -13.10903749	     -2.45158132	     55.23598257	     46.51986252	      0.00000000	      0.00000000
     15.22942857	     -3.78301233	     -3.13637421	     -1.31281857	      0.87710507	      0.93412172	      0.41256590	     30.49912792	     -5.18160996	     -6.05339619	     61.12320445	     61.12320445	      1.57074026	    -17.33470784	      5.95272318	     11.02033128	     -2.91886068	     -9.74546546	     18.53874028	     18.53874028	     13.00579166	    -12.12048283	      0.81336905	     -8.98673172	      6.46609540	      3.18699359	      1.26168247	    -11.22237084	     -8.95823209	     26.71601269	     45.93523152	      0.00000000	      0.00000000	     15.56659861	    -13.82859274	     -2.87564704	     56.12369009	     46.57711848	      0.00000000	      0.00000000
     15.24178571	     -3.67337508	     -3.16904942	     -1.64193128	      0.87635721	      0.93465353	      0.41256830	     30.95922111	     -4.86531866	     -6.15030138	     58.75426302	     58.75426302	      0.98349859	    -17.33842713	      3.67472867	      9.90425488	     -2.94798778	    -10.42296747	     17.60394918	     17.60394918	     12.65797911	    -11.57140360	     -0.73216609	     -9.35406826	      6.46852425	      2.85963748	      0.52689781	    -11.18601152	     -7.31273423	     23.86267989	     45.98334173	      0.00000000	      0.00000000	     15.68031020	    -13.99474637	     -4.55138871	     59.61000492	     46.78628112	      0.00000000	      0.00000000
     15.25414286	     -3.73370906	     -3.23963836	     -1.87562390	      0.87540710	      0.93487386	      0.41262793	     31.56566654	     -4.52346611	     -6.31723066	     56.26344605	     56.26344605	      1.10740339	    -16.90458890	      3.74620569	      9.12490799	     -2.96245447	    -10.63180347	     16.92876725	     16.92876725	     12.83992177	    -11.33387391	     -0.73043473	     -9.42231737	      6.58920977	      2.82302770	     -1.14626323	    -11.07849712	     -7.12748082	     23.13455267	     45.99356397	      0.00000000	      0.00000000	     16.81895332	    -14.28106142	     -4.97105189	     60.50487282	     46.84297648	      0.00000000	      0.00000000
